<?xml version="1.0" encoding="utf-8"?>
<!-- Generator: Adobe Illustrator 24.0.3, SVG Export Plug-In . SVG Version: 6.00 Build 0)  -->
<svg version="1.1" id="Layer_1" xmlns="http://www.w3.org/2000/svg" xmlns:xlink="http://www.w3.org/1999/xlink" x="0px" y="0px"
	 viewBox="0 0 700 700" style="enable-background:new 0 0 700 700;" xml:space="preserve">
<style type="text/css">
	.st0{fill:#20686C;}
	.st1{fill:#FE982A;}
</style>
<g>
	<path class="st0" d="M680,700H20c-11,0-20-9-20-20V20C0,9,9,0,20,0h660c11,0,20,9,20,20v660C700,691,691,700,680,700z"/>
	<g>
		<g>
			<path class="st1" d="M358,34.7c34.1,0,68.2,11.9,101.3,35.1c29.8,21,58.6,51.8,83.1,88.7c47.5,71.2,76.8,160.4,76.8,232.9
				c0,144-117.2,261.2-261.2,261.2S96.9,535.3,96.9,391.3c0-72.5,29.6-161.9,76.8-232.9c24.8-36.9,53.6-67.7,83.1-88.7
				C289.8,46.5,323.9,34.7,358,34.7 M358,32.1c-145.7,0-263.7,213.7-263.7,359.4s118.2,264,263.7,264s263.7-118.2,263.7-263.7
				S503.8,32.1,358,32.1L358,32.1z"/>
		</g>
		<g>
			<path class="st1" d="M387.1,46.8c9.1,0,18.2,0.8,27,2.5c32.6,6.1,62.9,23.7,89.9,51.8c24.5,25.5,46.5,59.9,63.1,99.5
				c32.3,76.3,44.2,166.7,31.1,235.7C575.5,555.8,471,642.4,349.7,642.4c-15.9,0-31.8-1.5-47.5-4.5c-66.4-12.6-124-50.3-162.2-106.3
				c-38.1-55.8-52-123.3-39.4-189.7c12.4-64.4,51.3-137.9,104.1-196C262.8,82.2,327.5,46.8,387.1,46.8L387.1,46.8 M387.1,44.3
				c-130.6,0-264.2,167.5-289,297.3c-26.3,138.9,64.7,272.8,203.6,299.1c16.2,3,32.1,4.5,48,4.5c120.5,0,227.8-85.4,251.1-208.1
				c26.3-138.9-47.5-363.7-186.2-390.3C405.5,45.3,396.2,44.3,387.1,44.3L387.1,44.3z"/>
		</g>
		<g>
			<path class="st1" d="M335.8,45.8c60.4,0,124.8,36.9,181.9,104.1c51,60.1,88.4,137.9,98,203.3c20.2,138.2-76,267-214.2,287.2
				c-12.1,1.8-24.5,2.8-36.9,2.8c-60.1,0-118.7-21.7-164.7-61.1c-46.5-39.9-76.8-95-85.6-155.6c-10.1-69.7,5.6-159.4,41.2-234.2
				c18.4-38.9,41.7-72.5,67.4-96.7c28.5-27,59.4-43.2,92.2-48C321.7,46.3,328.7,45.8,335.8,45.8L335.8,45.8 M335.8,43.3
				c-7.1,0-14.1,0.5-21.2,1.5c-139.9,20.5-223.3,242-202.8,381.7c18.4,127.3,127.8,219,252.8,219c12.4,0,24.8-0.8,37.1-2.8
				c139.9-20.5,236.7-150.3,216.2-290C598.8,220.1,468.4,43.3,335.8,43.3L335.8,43.3z"/>
		</g>
		<g>
			<path class="st1" d="M388.4,47.6c9.6,0,19.2,1,28.3,2.8c33.6,6.6,64.7,24.5,92.7,53.8c25.3,26.3,47.7,61.9,64.9,102.8
				c33.1,78.8,45.2,172,31.3,243.2c-23.7,122.8-131.3,211.9-256.4,211.9c-16.7,0-33.3-1.5-49.8-4.8C158,630,65,492.6,92.3,351.2
				c12.9-66.4,53-142,107.6-201.8C260.3,83.9,327,47.6,388.4,47.6L388.4,47.6 M388.4,45C253.7,45,115.8,217.3,90,350.7
				C62.5,493.9,156,632.3,299.2,659.8c16.9,3.3,33.6,4.8,50.3,4.8c124,0,234.4-87.7,258.7-213.9c27.5-143-48-375.4-191-402.9
				C407.6,46,398,45,388.4,45L388.4,45z"/>
		</g>
		<g>
			<path class="st1" d="M304.5,44.3c58.1,0,123,32.3,182.6,91.2c54.3,53.8,96.5,122.5,112.7,183.9
				c35.4,135.1-45.7,273.8-180.9,309.2c-21.2,5.6-42.7,8.3-64.4,8.3c-114.9,0-215.7-77.8-244.8-189.2
				c-17.9-67.9-12.1-158.9,14.9-237.4c14.1-40.7,33.6-76.5,56.3-103.6c25.3-30.1,54.3-49.5,86.4-57.8
				C279.2,45.8,291.6,44.3,304.5,44.3L304.5,44.3 M304.5,41.7c-12.9,0-25.5,1.5-37.9,4.8C130,82.4,71.6,311.8,107.5,448.4
				c30.1,114.9,133.9,191,247.3,191c21.5,0,43.2-2.8,64.9-8.3c136.7-35.9,218.5-175.6,182.6-312.2
				C569.7,194.6,432.1,41.7,304.5,41.7L304.5,41.7z"/>
		</g>
	</g>
	<path class="st1" d="M457.2,318.9c0,9-2,15.7-5.9,20.5c-3.9,4.8-9,7.3-15.5,7.3c-6.7,0-11.8-2.2-15.2-6.5
		c-3.4-4.2-5.1-10.1-5.1-17.7v-8.1c0-12.1-5.1-22.2-14.9-30.1c-9.8-7.9-23.6-11.8-41.6-11.8c-16.6,0-31.5,4.5-44.4,13.5
		c-12.9,9-23,21.6-30.1,37.7c-7.3,16-11,34.3-11,55.4c0,24.4,3.9,45.2,12.1,62.7c8.1,17.4,19.1,30.4,33.2,39.6
		c14.1,9,30.4,13.5,48.3,13.5c21.4,0,38.2-5.3,50.6-16.3c12.4-10.7,20.8-22.8,25.3-36.3c1.7-3.1,3.4-5.1,4.8-6.2
		c1.7-1.1,3.4-1.7,5.1-1.7c2.5,0,4.5,0.8,5.9,2.8c1.1,2,1.7,4.5,1.4,7.9c-2,13.5-7,26.4-15.7,38.5c-8.7,12.1-20.2,21.9-34.8,29.5
		c-14.6,7.6-31.5,11.2-51.1,11.2c-24.2,0-45.2-5.6-63.2-17.1c-18-11.5-31.8-27.3-41.6-47.5c-9.3-20.5-14.1-44.1-14.1-70.8
		c0-26.4,5.1-50,15.2-71.1c10.1-21.1,24.7-37.4,43.3-49.5c18.8-12.1,40.7-18.3,65.8-18.3c19.4,0,36,3.4,49.7,9.8
		c13.8,6.7,24.4,15.2,32,25.6C453.5,296.1,457.2,307,457.2,318.9z"/>
</g>
</svg>
