<svg xmlns="http://www.w3.org/2000/svg" width="257.072" height="253.268" viewBox="0 0 257.072 253.268">
  <g id="Group_42" data-name="Group 42" transform="translate(-292 -1571.001)">
    <g id="Group_16" data-name="Group 16" transform="translate(173.538 1260.849) rotate(45)">
      <g id="Path_27" data-name="Path 27" transform="translate(-0.773)" fill="none" stroke-miterlimit="10">
        <path d="M567.658,147.565a82.032,82.032,0,0,1-164.064,0c0-45.305,36.727-111.764,82.032-111.764S567.658,102.26,567.658,147.565Z" stroke="none"/>
        <path d="M 485.6261901855469 228.5969848632812 C 491.124755859375 228.5969848632812 496.6195983886719 228.0430908203125 501.9580993652344 226.9506683349609 C 507.1603393554688 225.8861541748047 512.2774658203125 224.2976989746094 517.1672973632812 222.2294921875 C 521.9685668945312 220.19873046875 526.5994873046875 217.6851196289062 530.931396484375 214.758544921875 C 535.222412109375 211.8595886230469 539.2575073242188 208.5303039550781 542.9246215820312 204.8632049560547 C 546.5917358398438 201.1960754394531 549.9210205078125 197.1609649658203 552.8200073242188 192.8699645996094 C 555.74658203125 188.5380401611328 558.2601318359375 183.9071502685547 560.2908935546875 179.1058654785156 C 562.359130859375 174.2160491943359 563.9475708007812 169.0989379882812 565.0120849609375 163.8966674804688 C 566.1044921875 158.5582275390625 566.6583862304688 153.0633850097656 566.6583862304688 147.5648040771484 C 566.6583862304688 125.043571472168 557.5162353515625 97.33338165283203 542.799560546875 75.24801635742188 C 539.0482177734375 69.61833190917969 534.9971923828125 64.45427703857422 530.7590942382812 59.8992805480957 C 526.3427124023438 55.15275192260742 521.7066650390625 51.05154418945312 516.9795532226562 47.7095947265625 C 512.026123046875 44.20764923095703 506.9265441894531 41.50843811035156 501.8224182128906 39.68693542480469 C 496.4563598632812 37.77196502685547 491.0071716308594 36.80099105834961 485.6261901855469 36.80099105834961 C 480.2452087402344 36.80099105834961 474.7960205078125 37.77196502685547 469.4299621582031 39.68693542480469 C 464.3258361816406 41.50843811035156 459.2262573242188 44.20764923095703 454.2728576660156 47.7095947265625 C 449.5457458496094 51.05154418945312 444.90966796875 55.15275192260742 440.4933471679688 59.8992805480957 C 436.2552185058594 64.45427703857422 432.2042236328125 69.61833190917969 428.4528503417969 75.24801635742188 C 413.7361755371094 97.33338165283203 404.593994140625 125.043571472168 404.593994140625 147.5648040771484 C 404.593994140625 153.0633850097656 405.1478881835938 158.5582275390625 406.2402954101562 163.8966674804688 C 407.3048400878906 169.0989379882812 408.893310546875 174.2160491943359 410.9615173339844 179.1058654785156 C 412.9922790527344 183.9071502685547 415.505859375 188.5380401611328 418.4324645996094 192.8699645996094 C 421.3313903808594 197.1609649658203 424.6606750488281 201.1960754394531 428.3277893066406 204.8632049560547 C 431.9949035644531 208.5303039550781 436.030029296875 211.8595886230469 440.321044921875 214.758544921875 C 444.6529235839844 217.6851196289062 449.2838439941406 220.19873046875 454.0851135253906 222.2294921875 C 458.9749450683594 224.2976989746094 464.0920715332031 225.8861541748047 469.2943115234375 226.9506683349609 C 474.6327819824219 228.0430908203125 480.1276245117188 228.5969848632812 485.6261901855469 228.5969848632812 M 485.6261901855469 229.5969848632812 C 440.3210754394531 229.5969848632812 403.593994140625 192.8698883056641 403.593994140625 147.5648040771484 C 403.593994140625 102.2597274780273 440.3210754394531 35.80099105834961 485.6261901855469 35.80099105834961 C 530.9313354492188 35.80099105834961 567.6583862304688 102.2597274780273 567.6583862304688 147.5648040771484 C 567.6583862304688 192.8698883056641 530.9313354492188 229.5969848632812 485.6261901855469 229.5969848632812 Z" stroke="none" fill="#24686b"/>
      </g>
      <g id="Path_28" data-name="Path 28" transform="translate(-0.714 -1.037)" fill="none" stroke-miterlimit="10">
        <path d="M561.021,162.746a79.543,79.543,0,0,1-156.289-29.7c8.2-43.159,55.217-99.82,98.375-91.619S569.222,119.588,561.021,162.746Z" stroke="none"/>
        <path d="M 482.9651794433594 226.4542388916016 C 492.0662536621094 226.4542388916016 501.0270385742188 224.877197265625 509.5986938476562 221.7669830322266 C 517.993896484375 218.7207641601562 525.7608642578125 214.300537109375 532.683837890625 208.6290893554688 C 539.6592407226562 202.9146423339844 545.544677734375 196.1190338134766 550.1765747070312 188.4310150146484 C 554.9703369140625 180.4742279052734 558.2883911132812 171.7698211669922 560.03857421875 162.5595397949219 C 564.1141967773438 141.1109771728516 560.4219360351562 113.0657348632812 550.4026489257812 89.3682861328125 C 547.8487548828125 83.32789611816406 544.9252319335938 77.67673492431641 541.71337890625 72.57181549072266 C 538.3666381835938 67.25259399414062 534.6939086914062 62.50823211669922 530.7972412109375 58.47048187255859 C 526.71435546875 54.23987197875977 522.3472290039062 50.74717712402344 517.817138671875 48.08948135375977 C 513.0549926757812 45.29567718505859 508.0430908203125 43.38556671142578 502.9205932617188 42.41214752197266 C 500.1928405761719 41.89381408691406 497.3749084472656 41.63100814819336 494.5450744628906 41.63100814819336 C 485.0169067382812 41.63100814819336 475.0586242675781 44.53814697265625 464.9468383789062 50.27162170410156 C 460.2452087402344 52.9375114440918 455.531005859375 56.21498107910156 450.9351501464844 60.01300811767578 C 446.5019226074219 63.67667770385742 442.1565551757812 67.84211730957031 438.0198364257812 72.39364624023438 C 430.0086669921875 81.20812225341797 422.7983703613281 91.46961975097656 417.1685180664062 102.0687866210938 C 411.5336608886719 112.6773681640625 407.5728454589844 123.4544830322266 405.71435546875 133.2350311279297 C 404.7194213867188 138.4710083007812 404.2525329589844 143.8036193847656 404.3268127441406 149.0847320556641 C 404.3992004394531 154.2311248779297 404.98583984375 159.3912353515625 406.0704650878906 164.4217071533203 C 407.1354675292969 169.3610687255859 408.6910400390625 174.2255859375 410.6940307617188 178.880126953125 C 412.6780700683594 183.4907073974609 415.1182250976562 187.9355163574219 417.9466247558594 192.0910034179688 C 420.7750854492188 196.2465057373047 424.0150451660156 200.1468963623047 427.5765686035156 203.6838226318359 C 431.1720275878906 207.2544250488281 435.1269226074219 210.4858703613281 439.3314208984375 213.2883911132812 C 443.6134338378906 216.1426239013672 448.1986999511719 218.5811004638672 452.9598693847656 220.5360870361328 C 457.8456726074219 222.5423126220703 462.9778442382812 224.0640106201172 468.2138366699219 225.0589752197266 C 473.0859985351562 225.9847869873047 478.049072265625 226.4542388916016 482.9651794433594 226.4542388916016 M 482.9651794433594 227.4542388916016 C 478.0384216308594 227.4542388916016 473.0452575683594 226.9949493408203 468.0271301269531 226.0413970947266 C 424.8692932128906 217.8403778076172 396.5309143066406 176.2062072753906 404.73193359375 133.04833984375 C 412.3928833007812 92.73202514648438 453.9276123046875 40.63101196289062 494.5450744628906 40.63101196289062 C 497.4085998535156 40.63101196289062 500.2650146484375 40.8896369934082 503.1072692871094 41.42973327636719 C 546.26513671875 49.63076019287109 569.2219848632812 119.5875930786133 561.02099609375 162.7462005615234 C 553.7735595703125 200.8860168457031 520.4111938476562 227.4542388916016 482.9651794433594 227.4542388916016 Z" stroke="none" fill="#24686b"/>
      </g>
      <g id="Path_29" data-name="Path 29" transform="translate(-1.99 -0.942)" fill="none" stroke-miterlimit="10">
        <path d="M567.632,136.441a79.543,79.543,0,0,1-157.424,22.931C403.876,115.9,429.828,47,473.3,40.665S561.3,92.969,567.632,136.441Z" stroke="none"/>
        <path d="M 488.8215942382812 226.4589538574219 C 492.6159057617188 226.4589538574219 496.458251953125 226.1795043945312 500.2418518066406 225.62841796875 C 505.5158386230469 224.8602294921875 510.7088623046875 223.561279296875 515.6766357421875 221.7676696777344 C 520.5176391601562 220.0198059082031 525.2037963867188 217.7813415527344 529.6049194335938 215.1144256591797 C 533.9263916015625 212.4958038330078 538.0169677734375 209.4378967285156 541.7630615234375 206.0255889892578 C 545.4738159179688 202.6455230712891 548.8789672851562 198.8884429931641 551.8839721679688 194.8587188720703 C 554.8889770507812 190.8290252685547 557.5184936523438 186.4935607910156 559.6995239257812 181.9727478027344 C 561.9013671875 177.4088897705078 563.665283203125 172.6159515380859 564.9423217773438 167.7270355224609 C 566.2428588867188 162.7479705810547 567.051513671875 157.6179809570312 567.345703125 152.4794769287109 C 567.6475830078125 147.2064514160156 567.4111328125 141.8586730957031 566.6428833007812 136.5846710205078 C 565.1831665039062 126.5628356933594 561.6023559570312 115.4396438598633 556.2874755859375 104.4175872802734 C 550.97265625 93.39555358886719 544.0315551757812 82.69753265380859 536.2146606445312 73.48011016845703 C 532.1734008789062 68.71480560302734 527.9071044921875 64.35124969482422 523.5342407226562 60.51063919067383 C 518.9955444335938 56.52433395385742 514.3201293945312 53.08333587646484 509.6378479003906 50.28316879272461 C 504.7490539550781 47.35947418212891 499.8053283691406 45.10725021362305 494.9440307617188 43.58903121948242 C 489.8517150878906 41.99869537353516 484.777099609375 41.19230651855469 479.8611755371094 41.19230651855469 C 477.7080688476562 41.19230651855469 475.5489196777344 41.3477783203125 473.4436340332031 41.6544189453125 C 468.283935546875 42.40605545043945 463.1943359375 44.09830856323242 458.3161926269531 46.68419647216797 C 453.6756896972656 49.14408493041992 449.1620178222656 52.44522476196289 444.9005432128906 56.49589157104492 C 440.8333435058594 60.36186218261719 436.95947265625 64.94347381591797 433.3865051269531 70.11347198486328 C 429.9574279785156 75.07516479492188 426.79296875 80.59500122070312 423.9809875488281 86.51969909667969 C 412.9490966796875 109.7631988525391 408.0509643554688 137.6231384277344 411.1980895996094 159.2273559570312 C 412.59033203125 168.7857513427734 415.6637268066406 177.8683929443359 420.3329162597656 186.2230072021484 C 424.8437194824219 194.294189453125 430.7059326171875 201.4532470703125 437.7567138671875 207.5012817382812 C 444.7655639648438 213.5133056640625 452.6894836425781 218.206787109375 461.3083190917969 221.4513092041016 C 470.13525390625 224.7741394042969 479.3920593261719 226.4589538574219 488.8215942382812 226.4589538574219 M 488.8215942382812 227.4589538574219 C 449.9637756347656 227.4589538574219 415.9745788574219 198.9583282470703 410.2085266113281 159.3715057373047 C 403.8759155273438 115.899528503418 429.8283081054688 46.9974479675293 473.2994995117188 40.66486358642578 C 475.4831848144531 40.34680557250977 477.6771240234375 40.19231796264648 479.8611755371094 40.19231796264648 C 521.1563110351562 40.19231796264648 561.61865234375 95.15223693847656 567.6324462890625 136.4405364990234 C 573.9649658203125 179.9117584228516 543.857177734375 220.2861633300781 500.385986328125 226.6179809570312 C 496.5016174316406 227.1837615966797 492.6344604492188 227.4589538574219 488.8215942382812 227.4589538574219 Z" stroke="none" fill="#24686b"/>
      </g>
      <g id="Path_30" data-name="Path 30" transform="translate(0 -1.099)" fill="none" stroke-miterlimit="10">
        <path d="M562.587,167.043a82.033,82.033,0,0,1-161.1-31.061C410.068,91.5,458.712,33.192,503.2,41.769S571.165,122.557,562.587,167.043Z" stroke="none"/>
        <path d="M 482.1286315917969 232.5597229003906 C 491.4977722167969 232.5597229003906 500.7239379882812 230.9395751953125 509.5509033203125 227.7442779541016 C 518.1978149414062 224.6141662597656 526.2006225585938 220.0712738037109 533.3370361328125 214.2418060302734 C 540.5281982421875 208.3675537109375 546.6010131835938 201.3798065185547 551.38671875 193.4726104736328 C 556.3396606445312 185.2891387939453 559.7777099609375 176.3331146240234 561.60546875 166.8533325195312 C 565.8692016601562 144.7392730712891 562.1385498046875 115.7993545532227 551.8692626953125 91.32719421386719 C 549.2515869140625 85.089111328125 546.2515258789062 79.25149536132812 542.952392578125 73.97649383544922 C 539.5145263671875 68.47969055175781 535.7387084960938 63.57494354248047 531.7298583984375 59.39849853515625 C 527.5289916992188 55.02210998535156 523.0325927734375 51.40624618530273 518.3656616210938 48.65135955810547 C 513.459228515625 45.75510787963867 508.2923583984375 43.77002334594727 503.0086669921875 42.75130462646484 C 500.1538696289062 42.20085906982422 497.2030944824219 41.92177581787109 494.2383728027344 41.92177581787109 C 484.415283203125 41.92177581787109 474.1439514160156 44.91146850585938 463.709716796875 50.80780410766602 C 458.8582763671875 53.54933166503906 453.9927978515625 56.91983032226562 449.2483825683594 60.82569122314453 C 444.6716613769531 64.59349822998047 440.1845092773438 68.87752532958984 435.9115600585938 73.5587158203125 C 427.6362915039062 82.62474822998047 420.1824035644531 93.18113708496094 414.3557434082031 104.0866622924805 C 408.5233459472656 115.0028305053711 404.413818359375 126.0973281860352 402.4713745117188 136.1706848144531 C 401.4303588867188 141.56982421875 400.9339599609375 147.0701904296875 400.9959106445312 152.5189361572266 C 401.0563049316406 157.8286895751953 401.6472473144531 163.1539916992188 402.7523193359375 168.3469696044922 C 403.83740234375 173.4459075927734 405.4287719726562 178.468994140625 407.4822998046875 183.2766418457031 C 409.5164489746094 188.0389099121094 412.0215759277344 192.6313934326172 414.9281616210938 196.9264678955078 C 417.8346862792969 201.2215881347656 421.16650390625 205.2546081542969 424.8310852050781 208.9135284423828 C 428.5305786132812 212.6073303222656 432.6018981933594 215.9522247314453 436.9318542480469 218.8552398681641 C 441.3417358398438 221.8118286132812 446.0655822753906 224.34033203125 450.9722595214844 226.3705291748047 C 456.0073547363281 228.4538879394531 461.2979736328125 230.0380554199219 466.6971130371094 231.0790557861328 C 471.7929382324219 232.0615539550781 476.9848327636719 232.5597229003906 482.1286315917969 232.5597229003906 M 482.128662109375 233.5597076416016 C 476.9778137207031 233.5597076416016 471.7535705566406 233.0723876953125 466.5078125 232.0609741210938 C 422.0218505859375 223.4837493896484 392.9122619628906 180.4672698974609 401.4894409179688 135.9813537597656 C 409.4942016601562 94.46931457519531 452.3911743164062 40.92177581787109 494.2383728027344 40.92177581787109 C 497.2354736328125 40.92177581787109 500.224853515625 41.19614028930664 503.197998046875 41.76938629150391 C 547.6838989257812 50.34660720825195 571.1646118164062 122.5567169189453 562.58740234375 167.0426635742188 C 555.0216674804688 206.2828216552734 520.65869140625 233.5597076416016 482.128662109375 233.5597076416016 Z" stroke="none" fill="#24686b"/>
      </g>
      <g id="Path_31" data-name="Path 31" transform="translate(-1.006 -0.807)" fill="none" stroke-miterlimit="10">
        <path d="M561.783,125.744a79.543,79.543,0,0,1-153.9,40.3c-11.127-42.5,7-113.859,49.5-124.987S550.655,83.247,561.783,125.744Z" stroke="none"/>
        <path d="M 469.178955078125 40.56047058105469 C 465.2221984863281 40.56047058105469 461.3388366699219 41.05197143554688 457.6368408203125 42.02130126953125 C 452.5927124023438 43.342041015625 447.722900390625 45.58976745605469 443.16259765625 48.70210266113281 C 438.824462890625 51.66276550292969 434.7059326171875 55.44538879394531 430.9213256835938 59.94482421875 C 427.309326171875 64.23910522460938 423.968994140625 69.22309875488281 420.9931640625 74.75837707519531 C 418.13720703125 80.07063293457031 415.6062622070312 85.90815734863281 413.4705810546875 92.10882568359375 C 405.0921020507812 116.4349365234375 403.3226318359375 144.6668548583984 408.8526000976562 165.7872161865234 C 411.1137084960938 174.4219665527344 414.7679443359375 182.5160522460938 419.7138671875 189.8446655273438 C 424.4946899414062 196.9286041259766 430.3817138671875 203.1568298339844 437.21142578125 208.3563232421875 C 443.9741821289062 213.5048217773438 451.4776000976562 217.5068817138672 459.5131530761719 220.2512664794922 C 467.6791076660156 223.0401916503906 476.18017578125 224.4542694091797 484.7803039550781 224.4542694091797 C 491.4767456054688 224.4542694091797 498.1885986328125 223.5858459472656 504.7294311523438 221.8731384277344 C 509.88525390625 220.5231628417969 514.901611328125 218.6547241210938 519.6390380859375 216.3197174072266 C 524.2556762695312 214.0442962646484 528.663818359375 211.2985229492188 532.7410888671875 208.15869140625 C 536.7444458007812 205.0757141113281 540.4696044921875 201.5818176269531 543.8129272460938 197.7741088867188 C 547.124755859375 194.0023193359375 550.0909423828125 189.889892578125 552.629150390625 185.5509643554688 C 555.1673583984375 181.2120666503906 557.29833984375 176.611083984375 558.963134765625 171.8757629394531 C 560.6436767578125 167.0953521728516 561.8635864257812 162.135986328125 562.5889892578125 157.1354064941406 C 563.3276977539062 152.0426025390625 563.5607299804688 146.8544921875 563.2816162109375 141.7151489257812 C 562.9951782226562 136.4412689208984 562.1654052734375 131.1529693603516 560.8153076171875 125.9971313476562 C 559.580810546875 121.2823791503906 557.830078125 116.3566284179688 555.611572265625 111.356689453125 C 553.4248657226562 106.4283752441406 550.7857666015625 101.4316558837891 547.7677001953125 96.50526428222656 C 541.6968994140625 86.59632873535156 534.117431640625 77.04348754882812 525.8485107421875 68.87947082519531 C 521.5868530273438 64.67182922363281 517.1396484375 60.82485961914062 512.63037109375 57.44538879394531 C 507.965087890625 53.94895935058594 503.2062072753906 50.93341064453125 498.4859313964844 48.48251342773438 C 488.3619079589844 43.225830078125 478.5015869140625 40.56047058105469 469.178955078125 40.56047058105469 M 469.1789855957031 39.56047058105469 C 508.8130798339844 39.56047058105469 551.6693725585938 87.11907958984375 561.78271484375 125.7438201904297 C 572.910888671875 168.2411499023438 547.4800415039062 211.7131652832031 504.9827270507812 222.8405151367188 C 498.2308654785156 224.6085052490234 491.4476928710938 225.4542694091797 484.7803039550781 225.4542694091797 C 449.4813232421875 225.4542694091797 417.245361328125 201.7860870361328 407.88525390625 166.04052734375 C 396.7578125 123.5423889160156 414.8861694335938 52.18130493164062 457.383544921875 41.05390930175781 C 461.2561340332031 40.0399169921875 465.2052001953125 39.56047058105469 469.1789855957031 39.56047058105469 Z" stroke="none" fill="#24686b"/>
      </g>
    </g>
    <g id="Group_38" data-name="Group 38" transform="translate(126.265 1305.71)">
      <path id="Path_43" data-name="Path 43" d="M357.391,572.432a150.021,150.021,0,0,1-19.031-.131l-11.488-.813a9.065,9.065,0,0,1-7.144-13.69l12.038-20.163a.9.9,0,1,0-1.541-.92l-12.038,20.163a10.86,10.86,0,0,0,8.558,16.4l11.488.813c3.539.251,7.107.376,10.676.376,2.866,0,5.733-.081,8.583-.243a.9.9,0,0,0-.1-1.792Z" transform="translate(-54.683 -147.567)" fill="#20686c"/>
      <path id="Path_44" data-name="Path 44" d="M450.623,550.214a.9.9,0,0,0-.6,1.117,10.6,10.6,0,1,1-3.129-4.879.9.9,0,1,0,1.189-1.344,12.363,12.363,0,1,0,3.658,5.708A.9.9,0,0,0,450.623,550.214Z" transform="translate(-145.647 -152.264)" fill="#20686c"/>
      <path id="Path_45" data-name="Path 45" d="M258.882,385.607a22.367,22.367,0,0,1-2.912-1.142,7.36,7.36,0,0,1-4.176-6.614v-.92a14.225,14.225,0,0,1,11.185-13.9l13.007-2.845a85.994,85.994,0,0,1,36.5,0l10.721,2.345a.9.9,0,1,0,.383-1.753l-10.72-2.345a87.8,87.8,0,0,0-37.264,0L262.6,361.282A16.019,16.019,0,0,0,250,376.931v.92a9.163,9.163,0,0,0,5.2,8.234,24.191,24.191,0,0,0,3.146,1.234.9.9,0,1,0,.537-1.712Z" fill="#20686c"/>
      <path id="Path_46" data-name="Path 46" d="M387.363,399.75a.9.9,0,0,0-1.114,1.407,14.153,14.153,0,0,1,5.4,11.155v.92a7.36,7.36,0,0,1-4.176,6.614,22.284,22.284,0,0,1-18.472.317l-.947-.412a7.323,7.323,0,0,1-4.4-6.718v-3.445a3.979,3.979,0,0,0-3.41-3.96l-4.525-.679a43.813,43.813,0,0,0-13.012,0l-4.524.679a3.979,3.979,0,0,0-3.41,3.96v3.445a7.323,7.323,0,0,1-4.4,6.718l-.947.412a22.319,22.319,0,0,1-11.42,1.7.9.9,0,0,0-.2,1.783,24.127,24.127,0,0,0,12.339-1.84l.948-.412a9.111,9.111,0,0,0,3.613-2.83.894.894,0,0,0,1.5-.053l.817-1.368a5.287,5.287,0,0,1,4.518-2.565h15.353a5.287,5.287,0,0,1,4.518,2.565L378.4,445.612a9.065,9.065,0,0,1-7.143,13.69l-.306.022a.9.9,0,0,0,.062,1.792l.064,0,.306-.022a10.86,10.86,0,0,0,8.557-16.4L365.3,420.173a9.12,9.12,0,0,0,2.037,1.223l.948.412a24.079,24.079,0,0,0,19.959-.342,9.163,9.163,0,0,0,5.2-8.234v-.92A15.937,15.937,0,0,0,387.363,399.75Zm-30.476,13.037H341.534a7.094,7.094,0,0,0-5.2,2.294,9.12,9.12,0,0,0,.233-2.048v-3.445a2.2,2.2,0,0,1,1.882-2.185l4.524-.679a42.033,42.033,0,0,1,12.479,0l4.524.679a2.2,2.2,0,0,1,1.882,2.185v3.445a9.12,9.12,0,0,0,.233,2.048A7.094,7.094,0,0,0,356.888,412.787Z" transform="translate(-54.976 -35.382)" fill="#20686c"/>
    </g>
  </g>
</svg>
