<?xml version="1.0" encoding="utf-8"?>
<!-- Generator: Adobe Illustrator 24.0.3, SVG Export Plug-In . SVG Version: 6.00 Build 0)  -->
<svg version="1.1" id="Layer_1" xmlns="http://www.w3.org/2000/svg" xmlns:xlink="http://www.w3.org/1999/xlink" x="0px" y="0px"
	 viewBox="0 0 802 258" style="enable-background:new 0 0 802 258;" xml:space="preserve">
<style type="text/css">
	.st0{fill:#FFFFFF;}
	.st1{fill:#FE982A;}
</style>
<path class="st0" d="M81.4,117.3c0,3.2-0.7,5.6-2.1,7.3c-1.4,1.7-3.2,2.6-5.5,2.6c-2.4,0-4.2-0.8-5.4-2.3c-1.2-1.5-1.8-3.6-1.8-6.3
	v-2.9c0-4.3-1.8-7.9-5.3-10.7c-3.5-2.8-8.4-4.2-14.8-4.2c-5.9,0-11.2,1.6-15.8,4.8c-4.6,3.2-8.2,7.7-10.7,13.4
	c-2.6,5.7-3.9,12.2-3.9,19.7c0,8.7,1.4,16.1,4.3,22.3s6.8,10.8,11.8,14.1c5,3.2,10.8,4.8,17.2,4.8c7.6,0,13.6-1.9,18-5.8
	c4.4-3.8,7.4-8.1,9-12.9c0.6-1.1,1.2-1.8,1.7-2.2c0.6-0.4,1.2-0.6,1.8-0.6c0.9,0,1.6,0.3,2.1,1c0.4,0.7,0.6,1.6,0.5,2.8
	c-0.7,4.8-2.5,9.4-5.6,13.7s-7.2,7.8-12.4,10.5s-11.2,4-18.2,4c-8.6,0-16.1-2-22.5-6.1S12.5,174.6,9,167.4c-3.3-7.3-5-15.7-5-25.2
	c0-9.4,1.8-17.8,5.4-25.3s8.8-13.3,15.4-17.6c6.7-4.3,14.5-6.5,23.4-6.5c6.9,0,12.8,1.2,17.7,3.5c4.9,2.4,8.7,5.4,11.4,9.1
	C80.1,109.2,81.4,113.1,81.4,117.3z"/>
<path class="st0" d="M130.7,99.1l0.4,23.4v50.9c0,2,0.4,3.5,1.2,4.6s2.3,1.8,4.4,2l8.1,1c1.3,0.1,2.3,0.6,2.9,1.3
	c0.7,0.7,1,1.6,1,2.5c0,1.1-0.3,1.9-1,2.5s-1.8,0.9-3.3,0.9h-35.2c-1.4,0-2.5-0.3-3.2-0.9c-0.7-0.6-1-1.4-1-2.5
	c0-0.9,0.3-1.7,0.9-2.3s1.4-1.1,2.5-1.5l4.8-1c2-0.4,3.3-1.1,4-2.1s1-2.5,1-4.5v-61c0-1.9-0.3-3.2-0.9-4s-1.6-1.3-3-1.4l-7.6-0.1
	c-1.3-0.2-2.2-0.6-2.7-1.2s-0.8-1.3-0.8-2.2c0-0.9,0.3-1.6,0.9-2.3c0.6-0.7,1.7-1.2,3.3-1.7l12.3-4c1.8-0.7,3.2-1.1,4.2-1.3
	c1-0.2,1.9-0.3,2.6-0.3c1.2,0,2.2,0.4,2.9,1.2C130.1,96,130.6,97.3,130.7,99.1z M127.8,135.1c0-9.4,1.3-17.2,4-23.5
	c2.6-6.3,6.1-11,10.4-14.1c4.3-3.1,9-4.7,14.1-4.7c5.3,0,9.3,1.5,12.1,4.4s4.2,7.1,4.2,12.5c0,3.3-0.7,5.9-2,7.6s-3,2.6-5,2.6
	c-2.2,0-3.9-0.7-5-2s-1.7-3.3-1.7-5.8v-2.9c0-2.3-0.6-4.1-1.8-5.2c-1.2-1.2-3-1.7-5.5-1.7c-3.5,0-6.9,1.3-9.9,3.9
	c-3.1,2.6-5.6,6.3-7.5,11.3s-2.9,11.2-2.9,18.6L127.8,135.1z"/>
<path class="st0" d="M271.1,128.5c0,3.5-0.9,6.1-2.8,7.9c-1.8,1.8-4.6,2.7-8.3,2.7h-59.6v-6.8h50.8c3.9,0,5.9-1.9,5.9-5.6
	c0-7.4-2.1-13.5-6.3-18.4s-9.9-7.3-17.1-7.3c-5.8,0-10.9,1.6-15.4,4.8c-4.5,3.2-8,7.6-10.5,13.3c-2.5,5.7-3.8,12.3-3.8,19.8
	c0,13.2,3.1,23.4,9.4,30.6c6.3,7.2,14.3,10.7,24.2,10.7c7.6,0,13.8-1.9,18.6-5.8c4.8-3.9,8-8.2,9.7-13.1c0.5-1.1,1-1.8,1.6-2.2
	s1.2-0.6,2-0.6c0.9,0,1.5,0.3,2,1s0.6,1.6,0.5,2.8c-0.7,4.8-2.6,9.4-5.7,13.7s-7.4,7.8-12.7,10.5s-11.5,4.1-18.6,4.1
	c-8.9,0-16.6-2-23.1-6.1s-11.5-9.7-14.9-17c-3.5-7.3-5.2-15.6-5.2-25.1c0-9.4,1.8-17.9,5.3-25.3c3.5-7.5,8.6-13.4,15.2-17.6
	c6.6-4.3,14.4-6.4,23.4-6.4c6.9,0,13.1,1.5,18.5,4.5s9.6,7.1,12.6,12.5C269.6,115.2,271.1,121.4,271.1,128.5z"/>
<path class="st0" d="M402.5,103.4l-6.4-0.8c-1.7-0.4-2.7-0.9-3.1-1.7c-0.4-0.8-0.7-1.7-0.7-2.6s0.3-1.7,1-2.4c0.7-0.7,1.6-1,2.9-1
	h7.2c1.2,0,2.1-0.3,2.7-0.9c0.7-0.6,1.3-1.8,1.8-3.6l3-12.7c0.6-1.4,1.3-2.5,2.2-3.2c0.9-0.7,1.9-1,2.9-1s1.9,0.4,2.6,1.1
	s1,1.8,1,3.3v89.4c0,4.1,1,7.2,2.9,9.4s4.5,3.3,7.8,3.3c2.2,0,4-0.3,5.4-1c1.3-0.7,2.4-1.5,3.3-2.5s1.6-1.8,2.2-2.5s1.2-1,1.9-1
	c0.7,0,1.3,0.3,1.7,0.8c0.4,0.5,0.6,1.4,0.6,2.7c0,2.2-0.8,4.3-2.4,6.5s-3.8,4-6.6,5.4c-2.8,1.4-6,2.1-9.6,2.1
	c-6.1,0-10.9-1.8-14.6-5.4c-3.7-3.6-5.5-9-5.5-16.3v-58.9c0-1.9-0.3-3.3-0.8-4.3C405.4,104.5,404.3,103.8,402.5,103.4z M411.7,103.1
	V95h29c1.6,0,2.8,0.3,3.5,0.8c0.8,0.5,1.1,1.3,1.1,2.3c0,1.5-0.6,2.7-1.8,3.6c-1.2,0.9-3.2,1.4-5.9,1.4
	C437.6,103.1,411.7,103.1,411.7,103.1z"/>
<path class="st0" d="M481.2,162.4v-49.9c0-1.9-0.3-3.2-0.9-4s-1.6-1.3-3.1-1.4l-7.6-0.1c-1.3-0.2-2.2-0.6-2.7-1.2s-0.8-1.3-0.8-2.2
	c0-0.9,0.3-1.6,0.9-2.3c0.6-0.7,1.7-1.2,3.3-1.7l12.2-4c2-0.7,3.4-1.1,4.5-1.3c1-0.2,1.9-0.3,2.7-0.3c1.4,0,2.6,0.5,3.4,1.4
	s1.2,2.1,1.2,3.6v60c0,7,1.7,12.4,5,16.1c3.4,3.7,7.7,5.5,13.1,5.5c3.9,0,8.1-1.1,12.7-3.3c4.6-2.2,9.4-5.7,14.5-10.5l3.8-3.7
	l3.9,4.6l-4.5,4.3c-6.2,6.2-12.3,10.8-18.3,13.8c-6,3.1-11.9,4.6-17.7,4.6c-7.5,0-13.7-2.4-18.4-7.3
	C483.6,178.3,481.2,171.3,481.2,162.4z M541.2,179.4V171l-0.2-1.2v-57.4c0-1.9-0.3-3.2-0.9-4c-0.6-0.8-1.6-1.3-3.1-1.4l-7.5-0.1
	c-1.3-0.2-2.2-0.6-2.7-1.2s-0.8-1.3-0.8-2.2c0-0.9,0.3-1.6,0.9-2.3c0.6-0.7,1.6-1.2,3.1-1.7l12.2-4c2-0.7,3.5-1.1,4.5-1.3
	c1-0.2,2-0.3,2.8-0.3c1.4,0,2.5,0.5,3.3,1.4s1.2,2.1,1.2,3.6v74.6c0,2,0.4,3.5,1.2,4.5c0.8,1.1,2.1,1.8,3.8,2.1l4.9,1
	c1.1,0.4,1.9,0.9,2.5,1.5s0.9,1.4,0.9,2.3c0,1.1-0.4,1.9-1.1,2.5c-0.7,0.6-1.8,0.9-3.1,0.9h-13.2c-3,0-5.1-0.7-6.5-2.1
	C541.9,184.8,541.2,182.5,541.2,179.4z"/>
<path class="st0" d="M607,34.8v140.5l-4.1,10c-0.9,1.3-1.8,2.2-2.7,2.7s-1.8,0.7-2.7,0.7c-1.2,0-2-0.3-2.6-1s-0.9-1.7-0.9-3.3
	l0.1-136c0-1.9-0.3-3.2-0.9-4c-0.6-0.8-1.6-1.3-3.1-1.4l-7.6-0.1c-1.2-0.2-2.1-0.6-2.7-1.2c-0.5-0.6-0.8-1.3-0.8-2.2
	s0.3-1.6,0.9-2.3c0.6-0.7,1.7-1.2,3.2-1.7l12.2-4c2-0.7,3.4-1.1,4.4-1.3c1-0.2,2-0.3,2.8-0.3c1.4,0,2.5,0.5,3.3,1.4
	C606.6,32.1,607,33.3,607,34.8z M602.6,123.2l-2.2-6.4c4.6-7.5,10.3-13.4,17.1-17.6s14.1-6.3,21.9-6.3c7.7,0,14.4,1.9,20.2,5.7
	c5.8,3.8,10.4,9.2,13.7,16.3c3.3,7.1,4.9,15.5,4.9,25.3c0,11-1.9,20.2-5.8,27.7c-3.8,7.5-9,13.1-15.4,16.9
	c-6.4,3.8-13.6,5.7-21.5,5.7c-7.8,0-14.9-2-21.2-6.1s-11.1-9.4-14.5-16l3.4-7.2c3.6,6.9,8.2,12.1,13.7,15.6s11.4,5.3,17.7,5.3
	c5.6,0,10.6-1.6,15.2-4.8c4.6-3.2,8.2-7.9,10.9-13.9c2.7-6.1,4.1-13.4,4.1-21.9c0-8.2-1.3-15.3-3.9-21.2
	c-2.6-5.9-6.1-10.4-10.6-13.6c-4.4-3.2-9.6-4.8-15.4-4.8c-6.9,0-13,1.9-18.5,5.8C611,111.3,606.4,116.5,602.6,123.2z"/>
<path class="st0" d="M724.5,34.8v138.6c0,2,0.3,3.6,1,4.6s2,1.8,3.9,2.2l4.9,1c2.1,0.7,3.1,1.8,3.1,3.6c0,2.2-1.3,3.4-4,3.4h-30.8
	c-1.4,0-2.4-0.3-3.1-0.9c-0.7-0.6-1.1-1.4-1.1-2.5c0-0.9,0.3-1.7,0.9-2.3c0.6-0.6,1.4-1.1,2.5-1.5l4.9-1c1.9-0.4,3.2-1,3.9-2.1
	c0.7-1,1.1-2.5,1.1-4.6v-125c0-1.9-0.3-3.2-0.9-4c-0.6-0.8-1.6-1.3-3.1-1.4l-7.6-0.1c-1.2-0.2-2.1-0.6-2.7-1.2
	c-0.5-0.6-0.8-1.3-0.8-2.2s0.3-1.6,0.9-2.3c0.6-0.7,1.7-1.2,3.2-1.7l12.2-4c2-0.7,3.4-1.1,4.5-1.3c1-0.2,2-0.3,2.8-0.3
	c1.4,0,2.5,0.5,3.3,1.4C724.1,32.1,724.5,33.3,724.5,34.8z M722.2,120.2l-3.9-4.5l4.5-4.3c6.3-6.2,12.4-10.9,18.5-13.9
	c6-3.1,11.9-4.6,17.8-4.6c7.6,0,13.8,2.4,18.6,7.3s7.2,11.8,7.2,20.8v52.5c0,2,0.4,3.5,1.1,4.6c0.7,1,2,1.7,3.9,2.1l4.9,1
	c1.1,0.4,1.9,0.9,2.5,1.5s0.9,1.4,0.9,2.3c0,1.1-0.4,1.9-1.1,2.5c-0.7,0.6-1.8,0.9-3.1,0.9h-30.8c-2.7,0-4-1.1-4-3.4
	c0-1.7,1-2.9,3.1-3.6l4.9-1c1.9-0.4,3.2-1.2,3.9-2.2s1-2.6,1-4.6v-49.2c0-7-1.7-12.4-5.1-16.1c-3.4-3.7-7.8-5.5-13.2-5.5
	c-3.9,0-8.2,1.1-12.8,3.3c-4.6,2.2-9.5,5.7-14.7,10.5L722.2,120.2z"/>
<g>
	<g>
		<path class="st1" d="M409,4.8c13.5,0,27,4.7,40.1,13.9c11.8,8.3,23.2,20.5,32.9,35.1c18.8,28.2,30.4,63.5,30.4,92.2
			c0,57-46.4,103.4-103.4,103.4S305.6,203,305.6,146c0-28.7,11.7-64.1,30.4-92.2c9.8-14.6,21.2-26.8,32.9-35.1
			C382,9.5,395.5,4.8,409,4.8 M409,3.8c-57.7,0-104.4,84.6-104.4,142.3S351.4,250.6,409,250.6s104.4-46.8,104.4-104.4
			S466.7,3.8,409,3.8L409,3.8z"/>
	</g>
	<g>
		<path class="st1" d="M420.5,9.6c3.6,0,7.2,0.3,10.7,1c12.9,2.4,24.9,9.4,35.6,20.5c9.7,10.1,18.4,23.7,25,39.4
			c12.8,30.2,17.5,66,12.3,93.3c-9,47.3-50.4,81.6-98.4,81.6c-6.3,0-12.6-0.6-18.8-1.8c-26.3-5-49.1-19.9-64.2-42.1
			c-15.1-22.1-20.6-48.8-15.6-75.1c4.9-25.5,20.3-54.6,41.2-77.6C371.3,23.6,396.9,9.6,420.5,9.6L420.5,9.6 M420.5,8.6
			c-51.7,0-104.6,66.3-114.4,117.7c-10.4,55,25.6,108,80.6,118.4c6.4,1.2,12.7,1.8,19,1.8c47.7,0,90.2-33.8,99.4-82.4
			c10.4-55-18.8-144-73.7-154.5C427.8,9,424.1,8.6,420.5,8.6L420.5,8.6z"/>
	</g>
	<g>
		<path class="st1" d="M400.2,9.2c23.9,0,49.4,14.6,72,41.2c20.2,23.8,35,54.6,38.8,80.5c8,54.7-30.1,105.7-84.8,113.7
			c-4.8,0.7-9.7,1.1-14.6,1.1c-23.8,0-47-8.6-65.2-24.2c-18.4-15.8-30.4-37.6-33.9-61.6c-4-27.6,2.2-63.1,16.3-92.7
			c7.3-15.4,16.5-28.7,26.7-38.3c11.3-10.7,23.5-17.1,36.5-19C394.6,9.4,397.4,9.2,400.2,9.2L400.2,9.2 M400.2,8.2
			c-2.8,0-5.6,0.2-8.4,0.6c-55.4,8.1-88.4,95.8-80.3,151.1c7.3,50.4,50.6,86.7,100.1,86.7c4.9,0,9.8-0.3,14.7-1.1
			c55.4-8.1,93.7-59.5,85.6-114.8C504.3,78.2,452.7,8.2,400.2,8.2L400.2,8.2z"/>
	</g>
	<g>
		<path class="st1" d="M421,9.9c3.8,0,7.6,0.4,11.2,1.1c13.3,2.6,25.6,9.7,36.7,21.3c10,10.4,18.9,24.5,25.7,40.7
			c13.1,31.2,17.9,68.1,12.4,96.3c-9.4,48.6-52,83.9-101.5,83.9c-6.6,0-13.2-0.6-19.7-1.9c-56-10.8-92.8-65.2-82-121.2
			c5.1-26.3,21-56.2,42.6-79.9C370.3,24.3,396.7,9.9,421,9.9L421,9.9 M421,8.9c-53.3,0-107.9,68.2-118.1,121
			C292,186.6,329,241.4,385.7,252.3c6.7,1.3,13.3,1.9,19.9,1.9c49.1,0,92.8-34.7,102.4-84.7c10.9-56.6-19-148.6-75.6-159.5
			C428.6,9.3,424.8,8.9,421,8.9L421,8.9z"/>
	</g>
	<g>
		<path class="st1" d="M387.8,8.6c23,0,48.7,12.8,72.3,36.1c21.5,21.3,38.2,48.5,44.6,72.8c14,53.5-18.1,108.4-71.6,122.4
			c-8.4,2.2-16.9,3.3-25.5,3.3c-45.5,0-85.4-30.8-96.9-74.9c-7.1-26.9-4.8-62.9,5.9-94c5.6-16.1,13.3-30.3,22.3-41
			c10-11.9,21.5-19.6,34.2-22.9C377.8,9.2,382.7,8.6,387.8,8.6L387.8,8.6 M387.8,7.6c-5.1,0-10.1,0.6-15,1.9
			c-54.1,14.2-77.2,105-63,159.1c11.9,45.5,53,75.6,97.9,75.6c8.5,0,17.1-1.1,25.7-3.3c54.1-14.2,86.5-69.5,72.3-123.6
			C492.8,68.1,438.3,7.6,387.8,7.6L387.8,7.6z"/>
	</g>
</g>
<path class="st0" d="M296.7,167c0-8.2,3.4-14.8,10.1-19.6s15.8-7.3,27.1-7.3c3.6,0,7.4,0.3,11.4,1s7.5,1.5,10.4,2.6l-1.1,6.6
	c-3-1.2-6.2-2.1-9.6-2.8s-7-1-10.8-1c-7.5,0-13.5,1.6-17.9,4.8s-6.6,7.8-6.6,13.8c0,5.6,1.8,9.8,5.3,12.5c3.5,2.8,8,4.2,13.4,4.2
	c5.5,0,10.6-1.3,15.4-4c4.8-2.6,8.9-6.3,12.4-11.1l2.3,5.4c-3.7,5.6-8.6,10.1-14.6,13.3s-12.7,4.8-20,4.8c-8.4,0-15-2.1-19.9-6.2
	C299.2,180,296.7,174.3,296.7,167z M353.6,177.2v-2.7l-0.8-0.9v-53.3c0-6.7-1.8-11.9-5.3-15.4s-8.2-5.3-14.2-5.3
	c-5.7,0-10.1,1.2-13.1,3.6s-4.5,5.5-4.5,9.2v4.6c0,2.9-0.7,5.1-2,6.6s-3.2,2.2-5.6,2.2c-2.5,0-4.4-0.8-5.5-2.4s-1.7-3.6-1.7-6
	c0-4.4,1.3-8.5,4-12.2s6.6-6.7,11.8-9c5.2-2.3,11.5-3.4,19-3.4c9.2,0,16.5,2.4,21.8,7.2c5.4,4.8,8,11.5,8,20.3v54.4
	c0,2,0.4,3.6,1.2,4.8c0.8,1.2,2.2,1.7,4.1,1.7c1.1,0,2-0.2,2.7-0.6c0.7-0.4,1.3-1,1.7-1.9c0.4-0.4,0.7-0.8,1-1.1s0.7-0.5,1.2-0.5
	c0.7,0,1.3,0.3,1.7,0.9c0.4,0.6,0.7,1.4,0.7,2.4c0,1.7-0.5,3.4-1.6,4.9c-1,1.6-2.5,2.8-4.5,3.7c-1.9,0.9-4.2,1.4-6.9,1.4
	c-4.3,0-7.6-1.2-10-3.5C354.8,184.6,353.6,181.4,353.6,177.2z"/>
</svg>
